<svg width="16" height="18" viewBox="0 0 16 18" fill="none" xmlns="http://www.w3.org/2000/svg">
<path d="M7.7998 8.39989C8.63047 8.39989 9.44249 8.15357 10.1332 7.69208C10.8238 7.23058 11.3622 6.57464 11.68 5.8072C11.9979 5.03976 12.0811 4.19529 11.919 3.38058C11.757 2.56587 11.357 1.81751 10.7696 1.23014C10.1822 0.642765 9.43388 0.242759 8.61917 0.0807027C7.80446 -0.0813532 6.95999 0.00181977 6.19255 0.319704C5.42511 0.637588 4.76917 1.17591 4.30767 1.86658C3.84618 2.55726 3.59985 3.36928 3.59985 4.19995C3.59985 5.31384 4.04235 6.38212 4.82999 7.16976C5.61763 7.9574 6.6859 8.39989 7.7998 8.39989ZM7.7998 1.19999C8.39314 1.19999 8.97315 1.37593 9.46649 1.70557C9.95983 2.03521 10.3443 2.50374 10.5714 3.05191C10.7985 3.60008 10.8579 4.20328 10.7421 4.78521C10.6264 5.36715 10.3406 5.90169 9.92109 6.32124C9.50154 6.74079 8.967 7.02651 8.38506 7.14227C7.80313 7.25802 7.19993 7.19861 6.65176 6.97155C6.10359 6.74449 5.63506 6.35998 5.30542 5.86664C4.97578 5.3733 4.79984 4.79328 4.79984 4.19995C4.79984 3.40431 5.1159 2.64126 5.67851 2.07865C6.24111 1.51605 7.00416 1.19999 7.7998 1.19999Z" fill="#5B5858"/>
<path d="M15.2818 12.8218C14.3196 11.8049 13.1601 10.9948 11.8742 10.4412C10.5883 9.88758 9.20293 9.60205 7.8029 9.60205C6.40287 9.60205 5.01755 9.88758 3.73163 10.4412C2.44571 10.9948 1.2862 11.8049 0.323997 12.8218C0.115387 13.0447 -0.000472141 13.3386 1.44616e-06 13.6438V16.7998C1.44616e-06 17.118 0.126428 17.4233 0.351469 17.6483C0.576509 17.8733 0.88173 17.9998 1.19999 17.9998H14.3998C14.7181 17.9998 15.0233 17.8733 15.2483 17.6483C15.4734 17.4233 15.5998 17.118 15.5998 16.7998V13.6438C15.6019 13.3394 15.4882 13.0456 15.2818 12.8218V12.8218ZM14.3998 16.7998H1.19999V13.6378C2.05031 12.7424 3.07394 12.0295 4.20856 11.5422C5.34319 11.055 6.56509 10.8038 7.7999 10.8038C9.03471 10.8038 10.2566 11.055 11.3912 11.5422C12.5259 12.0295 13.5495 12.7424 14.3998 13.6378V16.7998Z" fill="#5B5858"/>
</svg>
