<svg id="visual" viewBox="0 0 900 600" width="900" height="600" xmlns="http://www.w3.org/2000/svg" xmlns:xlink="http://www.w3.org/1999/xlink" version="1.1"><rect x="0" y="0" width="900" height="600" fill="#fff"></rect><defs><linearGradient id="grad1_0" x1="33.3%" y1="100%" x2="100%" y2="0%"><stop offset="20%" stop-color="#edbeea" stop-opacity="1"></stop><stop offset="80%" stop-color="#edbeea" stop-opacity="1"></stop></linearGradient></defs><defs><linearGradient id="grad1_1" x1="33.3%" y1="100%" x2="100%" y2="0%"><stop offset="20%" stop-color="#edbeea" stop-opacity="1"></stop><stop offset="80%" stop-color="#f1cbee" stop-opacity="1"></stop></linearGradient></defs><defs><linearGradient id="grad1_2" x1="33.3%" y1="100%" x2="100%" y2="0%"><stop offset="20%" stop-color="#f5d8f2" stop-opacity="1"></stop><stop offset="80%" stop-color="#f1cbee" stop-opacity="1"></stop></linearGradient></defs><defs><linearGradient id="grad1_3" x1="33.3%" y1="100%" x2="100%" y2="0%"><stop offset="20%" stop-color="#f5d8f2" stop-opacity="1"></stop><stop offset="80%" stop-color="#f8e5f7" stop-opacity="1"></stop></linearGradient></defs><defs><linearGradient id="grad1_4" x1="33.3%" y1="100%" x2="100%" y2="0%"><stop offset="20%" stop-color="#fcf2fb" stop-opacity="1"></stop><stop offset="80%" stop-color="#f8e5f7" stop-opacity="1"></stop></linearGradient></defs><defs><linearGradient id="grad1_5" x1="33.3%" y1="100%" x2="100%" y2="0%"><stop offset="20%" stop-color="#fcf2fb" stop-opacity="1"></stop><stop offset="80%" stop-color="#ffffff" stop-opacity="1"></stop></linearGradient></defs><defs><linearGradient id="grad2_0" x1="0%" y1="100%" x2="66.7%" y2="0%"><stop offset="20%" stop-color="#edbeea" stop-opacity="1"></stop><stop offset="80%" stop-color="#edbeea" stop-opacity="1"></stop></linearGradient></defs><defs><linearGradient id="grad2_1" x1="0%" y1="100%" x2="66.7%" y2="0%"><stop offset="20%" stop-color="#f1cbee" stop-opacity="1"></stop><stop offset="80%" stop-color="#edbeea" stop-opacity="1"></stop></linearGradient></defs><defs><linearGradient id="grad2_2" x1="0%" y1="100%" x2="66.7%" y2="0%"><stop offset="20%" stop-color="#f1cbee" stop-opacity="1"></stop><stop offset="80%" stop-color="#f5d8f2" stop-opacity="1"></stop></linearGradient></defs><defs><linearGradient id="grad2_3" x1="0%" y1="100%" x2="66.7%" y2="0%"><stop offset="20%" stop-color="#f8e5f7" stop-opacity="1"></stop><stop offset="80%" stop-color="#f5d8f2" stop-opacity="1"></stop></linearGradient></defs><defs><linearGradient id="grad2_4" x1="0%" y1="100%" x2="66.7%" y2="0%"><stop offset="20%" stop-color="#f8e5f7" stop-opacity="1"></stop><stop offset="80%" stop-color="#fcf2fb" stop-opacity="1"></stop></linearGradient></defs><defs><linearGradient id="grad2_5" x1="0%" y1="100%" x2="66.7%" y2="0%"><stop offset="20%" stop-color="#ffffff" stop-opacity="1"></stop><stop offset="80%" stop-color="#fcf2fb" stop-opacity="1"></stop></linearGradient></defs><g transform="translate(900, 600)"><path d="M-405.6 0C-385.1 -64.8 -364.7 -129.7 -333.4 -192.5C-302.2 -255.3 -260.2 -316.1 -202.8 -351.3C-145.4 -386.5 -72.7 -396 0 -405.6L0 0Z" fill="#fdf8fd"></path><path d="M-338 0C-321 -54 -303.9 -108.1 -277.8 -160.4C-251.8 -212.8 -216.8 -263.4 -169 -292.7C-121.2 -322.1 -60.6 -330 0 -338L0 0Z" fill="#faebf9"></path><path d="M-270.4 0C-256.8 -43.2 -243.1 -86.5 -222.3 -128.3C-201.5 -170.2 -173.5 -210.7 -135.2 -234.2C-97 -257.6 -48.5 -264 0 -270.4L0 0Z" fill="#f7def5"></path><path d="M-202.8 0C-192.6 -32.4 -182.3 -64.8 -166.7 -96.3C-151.1 -127.7 -130.1 -158 -101.4 -175.6C-72.7 -193.2 -36.4 -198 0 -202.8L0 0Z" fill="#f3d1f0"></path><path d="M-135.2 0C-128.4 -21.6 -121.6 -43.2 -111.1 -64.2C-100.7 -85.1 -86.7 -105.4 -67.6 -117.1C-48.5 -128.8 -24.2 -132 0 -135.2L0 0Z" fill="#efc5ec"></path><path d="M-67.6 0C-64.2 -10.8 -60.8 -21.6 -55.6 -32.1C-50.4 -42.6 -43.4 -52.7 -33.8 -58.5C-24.2 -64.4 -12.1 -66 0 -67.6L0 0Z" fill="#edbeea"></path></g><g transform="translate(0, 0)"><path d="M405.6 0C393.5 69.6 381.3 139.3 349 201.5C316.7 263.7 264.3 318.5 202.8 351.3C141.3 384.1 70.6 394.8 0 405.6L0 0Z" fill="#fdf8fd"></path><path d="M338 0C327.9 58 317.7 116.1 290.8 167.9C263.9 219.8 220.3 265.4 169 292.7C117.7 320.1 58.9 329 0 338L0 0Z" fill="#faebf9"></path><path d="M270.4 0C262.3 46.4 254.2 92.9 232.7 134.3C211.2 175.8 176.2 212.3 135.2 234.2C94.2 256 47.1 263.2 0 270.4L0 0Z" fill="#f7def5"></path><path d="M202.8 0C196.7 34.8 190.6 69.6 174.5 100.7C158.4 131.9 132.2 159.2 101.4 175.6C70.6 192 35.3 197.4 0 202.8L0 0Z" fill="#f3d1f0"></path><path d="M135.2 0C131.2 23.2 127.1 46.4 116.3 67.2C105.6 87.9 88.1 106.2 67.6 117.1C47.1 128 23.5 131.6 0 135.2L0 0Z" fill="#efc5ec"></path><path d="M67.6 0C65.6 11.6 63.5 23.2 58.2 33.6C52.8 44 44.1 53.1 33.8 58.5C23.5 64 11.8 65.8 0 67.6L0 0Z" fill="#edbeea"></path></g></svg>