<svg width="24" height="18" viewBox="0 0 24 18" fill="none" xmlns="http://www.w3.org/2000/svg">
<path d="M1.8 0.9V17.1C1.8 17.3387 1.70518 17.5676 1.5364 17.7364C1.36761 17.9052 1.13869 18 0.9 18C0.661305 18 0.432387 17.9052 0.263604 17.7364C0.0948213 17.5676 0 17.3387 0 17.1V0.9C0 0.661305 0.0948213 0.432387 0.263604 0.263604C0.432387 0.0948213 0.661305 0 0.9 0C1.13869 0 1.36761 0.0948213 1.5364 0.263604C1.70518 0.432387 1.8 0.661305 1.8 0.9V0.9ZM11.25 7.03125L9 7.7625V5.4C9 5.16131 8.90518 4.93239 8.7364 4.7636C8.56761 4.59482 8.33869 4.5 8.1 4.5C7.8613 4.5 7.63239 4.59482 7.4636 4.7636C7.29482 4.93239 7.2 5.16131 7.2 5.4V7.7625L4.95 7.03125C4.83856 6.99288 4.72053 6.97736 4.60295 6.9856C4.48538 6.99385 4.37067 7.0257 4.26567 7.07924C4.16067 7.13279 4.06754 7.20694 3.99183 7.29727C3.91612 7.3876 3.85938 7.49226 3.825 7.605C3.78649 7.7172 3.77083 7.83598 3.77895 7.95434C3.78707 8.07269 3.8188 8.18822 3.87227 8.29411C3.92574 8.40001 3.99987 8.49413 4.09029 8.57092C4.18071 8.64771 4.28559 8.70563 4.39875 8.74125L6.64875 9.4725L5.25375 11.385C5.18401 11.4809 5.13391 11.5897 5.10633 11.705C5.07876 11.8204 5.07425 11.94 5.09306 12.0571C5.11188 12.1742 5.15366 12.2864 5.21598 12.3873C5.27831 12.4882 5.35996 12.5758 5.45625 12.645C5.65096 12.7829 5.89202 12.839 6.12762 12.8011C6.36322 12.7633 6.57456 12.6345 6.71625 12.4425L8.1 10.53L9.48375 12.4425C9.62544 12.6345 9.83678 12.7633 10.0724 12.8011C10.308 12.839 10.549 12.7829 10.7437 12.645C10.84 12.5758 10.9217 12.4882 10.984 12.3873C11.0463 12.2864 11.0881 12.1742 11.1069 12.0571C11.1258 11.94 11.1212 11.8204 11.0937 11.705C11.0661 11.5897 11.016 11.4809 10.9463 11.385L9.55125 9.4725L11.8012 8.74125C11.9144 8.70563 12.0193 8.64771 12.1097 8.57092C12.2001 8.49413 12.2743 8.40001 12.3277 8.29411C12.3812 8.18822 12.4129 8.07269 12.421 7.95434C12.4292 7.83598 12.4135 7.7172 12.375 7.605C12.3406 7.49226 12.2839 7.3876 12.2082 7.29727C12.1325 7.20694 12.0393 7.13279 11.9343 7.07924C11.8293 7.0257 11.7146 6.99385 11.597 6.9856C11.4795 6.97736 11.3614 6.99288 11.25 7.03125V7.03125ZM23.175 7.605C23.1406 7.49226 23.0839 7.3876 23.0082 7.29727C22.9325 7.20694 22.8393 7.13279 22.7343 7.07924C22.6293 7.0257 22.5146 6.99385 22.397 6.9856C22.2795 6.97736 22.1614 6.99288 22.05 7.03125L19.8 7.7625V5.4C19.8 5.16131 19.7052 4.93239 19.5364 4.7636C19.3676 4.59482 19.1387 4.5 18.9 4.5C18.6613 4.5 18.4324 4.59482 18.2636 4.7636C18.0948 4.93239 18 5.16131 18 5.4V7.7625L15.75 7.03125C15.6386 6.99288 15.5205 6.97736 15.403 6.9856C15.2854 6.99385 15.1707 7.0257 15.0657 7.07924C14.9607 7.13279 14.8675 7.20694 14.7918 7.29727C14.7161 7.3876 14.6594 7.49226 14.625 7.605C14.5865 7.7172 14.5708 7.83598 14.5789 7.95434C14.5871 8.07269 14.6188 8.18822 14.6723 8.29411C14.7257 8.40001 14.7999 8.49413 14.8903 8.57092C14.9807 8.64771 15.0856 8.70563 15.1988 8.74125L17.4488 9.4725L16.0537 11.385C15.984 11.4809 15.9339 11.5897 15.9063 11.705C15.8788 11.8204 15.8742 11.94 15.8931 12.0571C15.9119 12.1742 15.9537 12.2864 16.016 12.3873C16.0783 12.4882 16.16 12.5758 16.2562 12.645C16.451 12.7829 16.692 12.839 16.9276 12.8011C17.1632 12.7633 17.3746 12.6345 17.5162 12.4425L18.9 10.53L20.2837 12.4425C20.4254 12.6345 20.6368 12.7633 20.8724 12.8011C21.108 12.839 21.349 12.7829 21.5437 12.645C21.64 12.5758 21.7217 12.4882 21.784 12.3873C21.8463 12.2864 21.8881 12.1742 21.9069 12.0571C21.9258 11.94 21.9212 11.8204 21.8937 11.705C21.8661 11.5897 21.816 11.4809 21.7462 11.385L20.3512 9.4725L22.6012 8.74125C22.7144 8.70563 22.8193 8.64771 22.9097 8.57092C23.0001 8.49413 23.0743 8.40001 23.1277 8.29411C23.1812 8.18822 23.2129 8.07269 23.221 7.95434C23.2292 7.83598 23.2135 7.7172 23.175 7.605V7.605Z" fill="#5B5858"/>
</svg>
