<svg width="116" height="60" viewBox="0 0 116 60" fill="none" xmlns="http://www.w3.org/2000/svg">
<path d="M12.64 44.28C10.5867 44.28 8.74667 43.9467 7.12 43.28C5.49333 42.6133 4.18667 41.6267 3.2 40.32C2.24 39.0133 1.73333 37.44 1.68 35.6H8.96C9.06667 36.64 9.42667 37.44 10.04 38C10.6533 38.5333 11.4533 38.8 12.44 38.8C13.4533 38.8 14.2533 38.5733 14.84 38.12C15.4267 37.64 15.72 36.9867 15.72 36.16C15.72 35.4667 15.48 34.8933 15 34.44C14.5467 33.9867 13.9733 33.6133 13.28 33.32C12.6133 33.0267 11.6533 32.6933 10.4 32.32C8.58667 31.76 7.10667 31.2 5.96 30.64C4.81333 30.08 3.82667 29.2533 3 28.16C2.17333 27.0667 1.76 25.64 1.76 23.88C1.76 21.2667 2.70667 19.2267 4.6 17.76C6.49333 16.2667 8.96 15.52 12 15.52C15.0933 15.52 17.5867 16.2667 19.48 17.76C21.3733 19.2267 22.3867 21.28 22.52 23.92H15.12C15.0667 23.0133 14.7333 22.3067 14.12 21.8C13.5067 21.2667 12.72 21 11.76 21C10.9333 21 10.2667 21.2267 9.76 21.68C9.25333 22.1067 9 22.7333 9 23.56C9 24.4667 9.42667 25.1733 10.28 25.68C11.1333 26.1867 12.4667 26.7333 14.28 27.32C16.0933 27.9333 17.56 28.52 18.68 29.08C19.8267 29.64 20.8133 30.4533 21.64 31.52C22.4667 32.5867 22.88 33.96 22.88 35.64C22.88 37.24 22.4667 38.6933 21.64 40C20.84 41.3067 19.6667 42.3467 18.12 43.12C16.5733 43.8933 14.7467 44.28 12.64 44.28ZM25.7294 32.8C25.7294 30.5067 26.156 28.4933 27.0094 26.76C27.8894 25.0267 29.076 23.6933 30.5694 22.76C32.0627 21.8267 33.7294 21.36 35.5694 21.36C37.1427 21.36 38.516 21.68 39.6894 22.32C40.8894 22.96 41.8094 23.8 42.4494 24.84V21.68H49.2894V44H42.4494V40.84C41.7827 41.88 40.8494 42.72 39.6494 43.36C38.476 44 37.1027 44.32 35.5294 44.32C33.716 44.32 32.0627 43.8533 30.5694 42.92C29.076 41.96 27.8894 40.6133 27.0094 38.88C26.156 37.12 25.7294 35.0933 25.7294 32.8ZM42.4494 32.84C42.4494 31.1333 41.9694 29.7867 41.0094 28.8C40.076 27.8133 38.9294 27.32 37.5694 27.32C36.2094 27.32 35.0494 27.8133 34.0894 28.8C33.156 29.76 32.6894 31.0933 32.6894 32.8C32.6894 34.5067 33.156 35.8667 34.0894 36.88C35.0494 37.8667 36.2094 38.36 37.5694 38.36C38.9294 38.36 40.076 37.8667 41.0094 36.88C41.9694 35.8933 42.4494 34.5467 42.4494 32.84ZM77.0378 21.68L63.0378 54.6H55.6778L60.7978 43.24L51.7178 21.68H59.3578L64.5178 35.64L69.6378 21.68H77.0378ZM93.1113 21.44C95.7246 21.44 97.8046 22.2933 99.3513 24C100.925 25.68 101.711 28 101.711 30.96V44H94.9113V31.88C94.9113 30.3867 94.5246 29.2267 93.7513 28.4C92.9779 27.5733 91.9379 27.16 90.6313 27.16C89.3246 27.16 88.2846 27.5733 87.5113 28.4C86.7379 29.2267 86.3513 30.3867 86.3513 31.88V44H79.5113V21.68H86.3513V24.64C87.0446 23.6533 87.9779 22.88 89.1513 22.32C90.3246 21.7333 91.6446 21.44 93.1113 21.44ZM109.904 19.36C108.704 19.36 107.718 19.0133 106.944 18.32C106.198 17.6 105.824 16.72 105.824 15.68C105.824 14.6133 106.198 13.7333 106.944 13.04C107.718 12.32 108.704 11.96 109.904 11.96C111.078 11.96 112.038 12.32 112.784 13.04C113.558 13.7333 113.944 14.6133 113.944 15.68C113.944 16.72 113.558 17.6 112.784 18.32C112.038 19.0133 111.078 19.36 109.904 19.36ZM113.304 21.68V44H106.464V21.68H113.304Z" fill="black"/>
<rect x="105" y="11" width="9" height="9" rx="4.5" fill="#EDBEEA"/>
</svg>
