<svg width="41" height="19" viewBox="0 0 41 19" fill="none" xmlns="http://www.w3.org/2000/svg">
<path d="M0.524384 0.273431C0.174908 0.604863 0.143138 1.1235 0.429072 1.48897L0.524384 1.59367L8.4124 9.07414L0.524384 16.5546C0.174908 16.886 0.143138 17.4047 0.429072 17.7701L0.524384 17.8748C0.873859 18.2063 1.42073 18.2364 1.8061 17.9652L1.9165 17.8748L10.5003 9.73426C10.8497 9.40283 10.8815 8.88419 10.5956 8.51872L10.5003 8.41402L1.9165 0.273431C1.53208 -0.0911438 0.908806 -0.0911438 0.524384 0.273431Z" fill="black" fill-opacity="0.3"/>
<path d="M15.2109 0.273431C14.8614 0.604863 14.8297 1.1235 15.1156 1.48897L15.2109 1.59367L23.0989 9.07414L15.2109 16.5546C14.8614 16.886 14.8297 17.4047 15.1156 17.7701L15.2109 17.8748C15.5604 18.2063 16.1073 18.2364 16.4926 17.9652L16.603 17.8748L25.1868 9.73426C25.5363 9.40283 25.568 8.88419 25.2821 8.51872L25.1868 8.41402L16.603 0.273431C16.2186 -0.0911438 15.5953 -0.0911438 15.2109 0.273431Z" fill="black" fill-opacity="0.6"/>
<path d="M29.8979 0.273431C29.5484 0.604863 29.5167 1.1235 29.8026 1.48897L29.8979 1.59367L37.7859 9.07414L29.8979 16.5546C29.5484 16.886 29.5167 17.4047 29.8026 17.7701L29.8979 17.8748C30.2474 18.2063 30.7943 18.2364 31.1796 17.9652L31.29 17.8748L39.8738 9.73426C40.2233 9.40283 40.255 8.88419 39.9691 8.51872L39.8738 8.41402L31.29 0.273431C30.9056 -0.0911438 30.2823 -0.0911438 29.8979 0.273431Z" fill="black"/>
</svg>
